<svg width="128px" height="128px" xmlns="http://www.w3.org/2000/svg">
  <style>
    .canvas { fill: url(#gradient) }
    .graphic { fill: #fff }
  </style>
  <defs>
    <radialGradient cy="80%" id="gradient">
      <stop offset="0" stop-color="#ff7a00"/>
      <stop offset="100%" stop-color="#b22222"/>
    </radialGradient>
  </defs>
  <path class="canvas" d="M16 0 C7.164 0 0 7.164 0 16 L0 112 C0 120.836 7.164 128 16 128 L112 128 C120.836 128 128 120.836 128 112 L128 16 C128 7.164 120.836 0 112 0 Z"/>
  <path class="graphic" d="M56.343 112.75 C55.425 112.745 54.019 112.352 52.813 111.763 51.711 111.225 49.924 110.101 48.842 109.266 47.759 108.431 45.815 106.65 44.52 105.309 43.226 103.968 41.541 101.903 40.776 100.719 40.011 99.535 38.862 97.428 38.221 96.038 37.581 94.647 36.733 92.243 36.337 90.695 35.792 88.563 35.617 86.71 35.617 83.059 35.617 79.657 35.828 77.205 36.333 74.728 36.726 72.797 37.836 69.138 38.8 66.597 39.763 64.055 41.724 59.553 43.156 56.593 44.588 53.632 46.566 49.352 47.552 47.082 48.537 44.812 49.814 41.624 50.389 39.998 50.963 38.371 51.606 35.626 51.818 33.898 52.099 31.596 52.092 30.088 51.789 28.253 51.561 26.876 50.858 24.699 50.225 23.414 49.593 22.129 48.129 20.066 46.973 18.829 45.691 17.46 44.948 16.378 45.07 16.061 45.179 15.774 45.827 15.436 46.508 15.308 47.189 15.18 48.691 15.271 49.846 15.51 51.001 15.749 53.077 16.512 54.459 17.205 55.84 17.899 57.664 18.942 58.511 19.523 59.358 20.104 60.928 21.643 62 22.943 63.072 24.243 64.609 26.575 65.416 28.126 66.223 29.677 67.188 31.83 67.56 32.911 67.932 33.992 68.558 36.371 68.953 38.198 69.347 40.025 69.861 43.619 70.095 46.185 70.33 48.751 70.666 51.449 70.844 52.18 71.021 52.911 71.579 54.001 72.085 54.603 72.633 55.253 73.348 55.695 73.853 55.695 74.32 55.695 75.113 55.508 75.615 55.279 76.118 55.05 77.009 54.115 77.596 53.2 78.182 52.286 78.91 50.838 79.211 49.983 79.533 49.071 79.758 47.222 79.756 45.512 79.753 43.908 79.507 41.708 79.208 40.622 78.909 39.537 78.568 38.204 78.45 37.662 78.265 36.813 78.348 36.675 79.044 36.675 79.571 36.675 80.707 37.544 82.303 39.168 83.65 40.539 85.319 42.518 86.013 43.564 86.706 44.611 87.939 47.064 88.754 49.015 89.568 50.967 90.613 54.358 91.078 56.552 91.542 58.746 92.097 62.277 92.313 64.398 92.595 67.185 92.595 69.328 92.312 72.114 92.097 74.236 91.62 77.524 91.253 79.42 90.886 81.316 90.084 84.366 89.47 86.197 88.856 88.029 87.672 90.996 86.838 92.791 86.005 94.586 84.7 97.019 83.939 98.196 83.179 99.374 81.564 101.372 80.35 102.636 79.137 103.9 77.686 105.173 77.125 105.463 76.564 105.754 76.013 105.901 75.901 105.789 75.789 105.677 76.525 103.843 77.536 101.714 78.547 99.585 79.702 96.475 80.103 94.803 80.638 92.57 80.832 90.542 80.834 87.161 80.836 83.181 80.713 82.192 79.925 79.843 79.424 78.35 78.601 76.424 78.097 75.563 77.592 74.703 77.053 73.999 76.899 73.999 76.745 73.999 76.639 75.331 76.664 76.959 76.703 79.499 76.582 80.15 75.812 81.535 75.231 82.582 74.445 83.38 73.58 83.803 72.419 84.37 72.114 84.393 71.247 83.975 70.291 83.516 70.251 83.391 70.288 80.99 70.309 79.612 70.367 76.777 70.416 74.689 70.488 71.705 70.341 70.286 69.731 68.05 69.304 66.486 68.585 64.398 68.134 63.411 67.683 62.425 66.864 61.085 66.314 60.435 65.764 59.785 64.695 58.937 63.938 58.551 63.181 58.165 62.133 57.849 61.609 57.849 60.809 57.849 60.683 57.979 60.825 58.656 60.918 59.1 61.28 60.421 61.629 61.591 62.073 63.081 62.204 64.366 62.067 65.877 61.923 67.462 61.437 68.899 60.237 71.286 59.338 73.074 57.038 76.636 55.126 79.202 53.214 81.768 51.005 84.918 50.217 86.201 49.43 87.484 48.467 89.422 48.078 90.507 47.689 91.593 47.287 93.585 47.186 94.934 47.081 96.315 47.197 98.274 47.449 99.42 47.696 100.538 48.283 102.273 48.753 103.275 49.275 104.388 50.552 105.994 52.035 107.402 53.37 108.67 55.229 110.229 56.165 110.866 57.102 111.504 57.868 112.19 57.868 112.392 57.868 112.593 57.182 112.754 56.343 112.75 Z"/>
</svg>
